<svg viewBox="0 0 200 200" xmlns="http://www.w3.org/2000/svg">
  <path fill="#FF0066" d="M25.8,-48.6C30,-42.3,27.6,-28.4,35.1,-19.1C42.5,-9.7,59.9,-4.8,66,3.5C72.2,11.9,67,23.8,57.8,30.3C48.7,36.7,35.6,37.8,25.3,45.4C15,52.9,7.5,67,-3.8,73.6C-15.2,80.3,-30.3,79.5,-44.4,74.2C-58.5,68.8,-71.6,58.8,-77.5,45.7C-83.3,32.6,-82.1,16.3,-72,5.8C-62,-4.7,-43.1,-9.3,-35.7,-19.8C-28.3,-30.3,-32.3,-46.6,-28.2,-52.8C-24.2,-59.1,-12.1,-55.5,-0.6,-54.4C10.8,-53.3,21.7,-54.8,25.8,-48.6Z" transform="translate(100 100)" />
</svg>