<?xml version="1.0" standalone="no"?>
<!DOCTYPE svg PUBLIC "-//W3C//DTD SVG 20010904//EN"
 "http://www.w3.org/TR/2001/REC-SVG-20010904/DTD/svg10.dtd">
<svg version="1.0" xmlns="http://www.w3.org/2000/svg"
 width="1200.000000pt" height="1200.000000pt" viewBox="0 0 1200.000000 1200.000000"
 preserveAspectRatio="xMidYMid meet">

<g transform="translate(0.000000,1200.000000) scale(0.100000,-0.100000)"
fill="#000000" stroke="none">
<path d="M3315 8139 c-635 -68 -1203 -407 -1551 -925 -84 -125 -193 -347 -238
-486 -149 -453 -135 -1000 38 -1443 249 -635 751 -1107 1362 -1279 213 -60
196 -59 999 -63 407 -2 780 -3 829 -1 l88 3 -88 59 c-63 42 -144 115 -274 245
-199 200 -285 310 -340 435 l-34 76 -363 0 c-291 0 -379 3 -441 16 -232 47
-498 180 -676 337 -170 150 -313 414 -388 715 -50 201 -43 369 24 582 65 203
169 373 327 531 146 146 281 233 463 297 179 64 146 62 1300 62 1151 0 1101 2
1293 -61 347 -114 634 -350 785 -644 134 -263 159 -594 74 -975 -14 -62 -75
-275 -89 -312 -7 -17 19 -18 453 -18 l461 0 15 53 c217 755 153 1389 -193
1903 -296 442 -757 754 -1286 871 l-120 27 -1175 2 c-646 1 -1211 -2 -1255 -7z"/>
<path d="M6960 8135 c6 -7 64 -51 128 -98 65 -47 153 -121 196 -165 138 -140
278 -344 362 -528 l35 -74 192 0 c632 -1 946 -66 1232 -255 262 -174 460 -503
534 -889 25 -127 26 -208 6 -334 -75 -463 -406 -857 -840 -1001 -207 -68 -134
-64 -1265 -68 -1129 -4 -1121 -5 -1310 57 -307 100 -572 294 -736 540 -240
361 -264 753 -79 1303 19 58 35 108 35 111 0 4 -205 6 -455 6 l-455 0 -11 -27
c-50 -131 -112 -464 -130 -696 -27 -348 35 -702 173 -997 239 -509 739 -926
1294 -1080 243 -67 169 -63 1384 -67 1116 -4 1294 0 1518 32 583 86 1113 382
1367 765 168 253 281 530 339 829 147 753 -73 1525 -574 2021 -338 334 -778
513 -1435 584 -200 22 -531 34 -1058 40 -387 4 -457 3 -447 -9z"/>
</g>
</svg>
